<svg xmlns="http://www.w3.org/2000/svg" width="207.544" height="72.258" viewBox="0 0 207.544 72.258">
  <g id="Group_303" data-name="Group 303" transform="translate(-36.18 -33.734)">
    <g id="Group_300" data-name="Group 300">
      <path id="Path_346" data-name="Path 346" d="M143.847,55.562a16.717,16.717,0,0,0-12.718,2.415,16.391,16.391,0,0,0-7.138,10.5,16.816,16.816,0,0,0,2.53,12.8,16.669,16.669,0,0,0,23.316,4.348,15.978,15.978,0,0,0,4.788-5.09h-5.482a12.316,12.316,0,0,1-20.912-6.465h28.62a15.531,15.531,0,0,0-2.44-11.134A16.9,16.9,0,0,0,143.847,55.562Zm-15.72,14.867a12.317,12.317,0,0,1,24.458,0Z" fill="#ac885a"/>
      <path id="Path_347" data-name="Path 347" d="M218.679,55.192h-.008A16.768,16.768,0,0,0,201.945,71.88a16.783,16.783,0,0,0,16.7,16.737h.066a16.713,16.713,0,0,0-.034-33.425Zm-.007,29h-.016a12.389,12.389,0,0,1-12.35-12.245,12.187,12.187,0,0,1,3.573-8.7,12.312,12.312,0,0,1,8.751-3.708h.058a12.328,12.328,0,1,1-.016,24.655Z" fill="#ac885a"/>
      <path id="Path_348" data-name="Path 348" d="M179.9,76.606,170.279,55.19h-4.8l14.412,32.378,14.36-32.377h-4.783Z" fill="#ac885a"/>
    </g>
    <g id="Group_301" data-name="Group 301">
      <path id="Path_349" data-name="Path 349" d="M72.181,33.734A36.349,36.349,0,0,0,39.969,53.3,40.271,40.271,0,0,0,36.18,70.045a35.948,35.948,0,0,0,2.013,11.89V70.045a33.988,33.988,0,1,1,67.976,0V81.932a35.929,35.929,0,0,0,2.012-11.887A40.762,40.762,0,0,0,105.1,54.738,36.356,36.356,0,0,0,72.181,33.734Z" fill="#ac885a"/>
      <path id="Path_350" data-name="Path 350" d="M72.152,40.422A29.967,29.967,0,0,0,42.219,70.355V90.007a36.125,36.125,0,0,0,2.323,3.1V70.355a27.611,27.611,0,0,1,55.221,0V93.178a36.221,36.221,0,0,0,2.323-3.086V70.355A29.967,29.967,0,0,0,72.152,40.422Z" fill="#ac885a"/>
      <path id="Path_351" data-name="Path 351" d="M72.124,47.111A23.581,23.581,0,0,0,48.569,70.666V97.22q1.122.975,2.323,1.856V70.666a21.233,21.233,0,1,1,42.465,0V99.158q1.2-.873,2.323-1.84V70.666A23.582,23.582,0,0,0,72.124,47.111Z" fill="#ac885a"/>
      <path id="Path_352" data-name="Path 352" d="M72.1,53.8A17.2,17.2,0,0,0,54.919,70.976v30.667q1.137.623,2.323,1.164V70.976a14.854,14.854,0,0,1,29.708,0v31.909q1.185-.533,2.323-1.149V70.976A17.2,17.2,0,0,0,72.1,53.8Z" fill="#ac885a"/>
      <path id="Path_353" data-name="Path 353" d="M72.067,60.487a10.812,10.812,0,0,0-10.8,10.8v33.072q1.144.364,2.323.652V71.287a8.476,8.476,0,1,1,16.953,0v33.78q1.176-.281,2.323-.634V71.287A10.812,10.812,0,0,0,72.067,60.487Z" fill="#ac885a"/>
      <path id="Path_354" data-name="Path 354" d="M72.039,67.176A4.426,4.426,0,0,0,67.618,71.6v34.162c.767.1,1.542.167,2.323.215V71.6a2.1,2.1,0,1,1,4.2,0v34.395q1.171-.063,2.322-.2V71.6A4.426,4.426,0,0,0,72.039,67.176Z" fill="#ac885a"/>
    </g>
    <g id="Group_302" data-name="Group 302">
      <path id="Path_355" data-name="Path 355" d="M241.691,56.444l-.056.159-.054-.16s-.684-2.013-.884-2.606c-.01-.032-.011-.032-.042-.032-.26,0-.519,0-.781,0h-.319v3.874h.7V54.675l1.13,3,.494,0,1.14-3.048v3.041h.7V53.809H242.59C242.3,54.719,241.7,56.426,241.691,56.444Z" fill="#ac885a"/>
      <path id="Path_356" data-name="Path 356" d="M237.021,57.681h.759V54.592c0-.024,0-.047,0-.073l0-.091h1.189v-.615h-3.148v.619h1.192Z" fill="#ac885a"/>
    </g>
  </g>
</svg>
