<svg id="Layer_2" data-name="Layer 2" xmlns="http://www.w3.org/2000/svg" viewBox="0 0 154.35918 34.96691"><defs><style>.cls-1{fill:#00aeef;}.cls-2{fill:#002856;}</style></defs><polyline class="cls-1" points="138.912 10.458 154.359 10.458 146.621 24.646 138.912 10.458"/><path class="cls-2" d="M20.11062,29.04574V26.12862H14.801V11.77735H11.50017V29.04574Zm5.166-9.20781a1.61843,1.61843,0,0,1,1.674-1.60217,1.40781,1.40781,0,0,1,1.5546,1.55461v.956c-3.75539,1.12421-6.625,2.41581-6.625,5.42982A2.7562,2.7562,0,0,0,24.87,29.28539a4.96628,4.96628,0,0,0,3.58725-1.50662c.09554.526.14361.933.21579,1.267h3.01316a3.86836,3.86836,0,0,1-.167-1.05194V19.74238c0-2.32026-1.22017-3.94705-4.425-3.94705-2.41581,0-4.61659,1.14884-4.83162,4.0426Zm3.22861,6.00348A3.16489,3.16489,0,0,1,26.233,27.037a1.25023,1.25023,0,0,1-1.33957-1.363c0-1.36378,1.81761-2.36816,3.61178-2.99022v3.15769Zm8.347,3.20433V15.4609h.048L40.416,29.04574h2.488L46.41986,15.4609h.04807V29.04574h2.82158V11.77735H44.67368L41.68386,23.11453H41.6363L38.64649,11.77735H34.02982V29.04574ZM57.85274,15.509h.04714l1.6031,6.98358H56.226L57.85274,15.509ZM54.69513,29.04574l.93254-3.63514h4.56862l.837,3.63514h3.15686L60.02891,11.77735H55.79548l-4.281,17.26839ZM68.75877,16.8961c0-1.91315.837-2.44,2.1528-2.44,1.315,0,2.152.52686,2.152,2.44v.47846h3.30164v-.048c0-4.25762-2.24876-5.788-5.4536-5.788s-5.4536,1.5304-5.4536,5.788v6.17121c0,4.25637,2.24876,5.78761,5.4536,5.78761s5.4536-1.53124,5.4536-5.78761v-.718H73.06353v1.148c0,1.91366-.837,2.4396-2.152,2.4396-1.3158,0-2.1528-.52594-2.1528-2.4396V16.8961Zm13.53762,0c0-1.91315.837-2.44,2.15205-2.44,1.31579,0,2.1528.52686,2.1528,2.44v.47846h3.30037v-.048c0-4.25762-2.24758-5.788-5.45317-5.788-3.20484,0-5.45243,1.5304-5.45243,5.788v6.17121c0,4.25637,2.24759,5.78761,5.45243,5.78761,3.20559,0,5.45317-1.53124,5.45317-5.78761v-.718H86.60124v1.148c0,1.91366-.837,2.4396-2.1528,2.4396-1.315,0-2.15205-.52594-2.15205-2.4396V16.8961ZM95.83367,29.04574V21.58421h4.66424v7.46153h3.30038V11.77735h-3.30038v6.88839H95.83367V11.77735H92.53321V29.04574Zm13.89583,0V11.77735h-3.30122V29.04574ZM118.29231,15.509H118.34l1.60258,6.98358H116.666l1.62636-6.98358Zm-3.1576,13.53677.933-3.63514h4.5682l.837,3.63514h3.15676l-4.16116-17.26839h-4.23342l-4.281,17.26839h3.18056" transform="translate(-11.50017 -9.05459)"/><path class="cls-2" d="M83.6963,38.71555v.97573h2.33951v.87558a2.21628,2.21628,0,0,1-2.48227,2.29682c-1.52175,0-2.95695-1.034-2.95695-4.34829,0-3.31517,1.4352-4.34913,2.95695-4.34913,1.205,0,2.06625.63181,2.58319,2.28288l1.0906-.21587c-.63189-2.20978-1.98046-3.04191-3.73161-3.04191-2.35388,0-4.04671,1.69291-4.04671,5.324,0,3.63027,1.69283,5.32394,4.04671,5.32394A3.28725,3.28725,0,0,0,86.20815,42.748h.02832v.94691h.94691V38.71555Zm7.07517-4.40569h2.06626c1.4778,0,2.4248.416,2.4248,1.80854,0,1.30555-.83129,1.89391-2.4101,1.89391h-2.081V34.30986Zm0,9.385V38.98881h2.42481l2.09583,4.70608h1.24807l-2.19591-4.93666A2.68538,2.68538,0,0,0,96.41136,36.061c0-1.72241-1.22025-2.726-3.458-2.726H89.62348V43.69489Zm8.21-5.1795c0-2.94183,1.07573-4.34913,2.8983-4.34913,1.82333,0,2.89914,1.4073,2.89914,4.34913,0,2.94174-1.07581,4.34829-2.89914,4.34829-1.82257,0-2.8983-1.40655-2.8983-4.34829Zm-1.148,0c0,3.45793,1.50654,5.32394,4.04629,5.32394,2.54052,0,4.04715-1.866,4.04715-5.32394,0-3.45877-1.50663-5.324-4.04715-5.324-2.53975,0-4.04629,1.86526-4.04629,5.324Zm9.9586-5.18042v7.23189c0,2.067,1.49268,3.27247,3.63112,3.27247s3.63111-1.20546,3.63111-3.27247V33.335h-1.148v7.31885a2.49954,2.49954,0,0,1-4.96539,0V33.335Zm10.96392.97489h2.21062c1.54931,0,2.28128.66055,2.28128,1.89475,0,1.23412-.63105,1.89467-2.53975,1.89467H118.756V34.30986Zm0,9.385V39.075h1.83728c2.61193,0,3.80345-1.11934,3.80345-2.84175,0-1.63536-.96178-2.8983-3.1724-2.8983h-3.61557V43.69489H118.756" transform="translate(-11.50017 -9.05459)"/><polyline class="cls-2" points="133.071 0 113.909 34.967 152.359 34.967 146.635 24.639 131.578 24.639 138.921 10.452 133.071 0"/></svg>