<svg width="54" height="73" viewBox="0 0 54 73" fill="none" xmlns="http://www.w3.org/2000/svg">
<g clip-path="url(#clip0_357_324)">
<path d="M8.65168 63.8408C8.28467 63.2731 7.76106 62.8376 7.08575 62.5391C6.41045 62.2406 5.60791 62.0889 4.67814 62.0889H0.0292969V72.2723H2.90669V69.6102H4.68303C5.6128 69.6102 6.41534 69.4585 7.09065 69.1502C7.76595 68.8468 8.28467 68.4113 8.65657 67.8485C9.02359 67.2858 9.20954 66.6203 9.20954 65.8569C9.20954 65.0935 9.02359 64.4084 8.65657 63.8408H8.65168ZM6.21471 66.9481C5.9211 67.2124 5.47089 67.3396 4.86899 67.3396H3.26881V64.3595H4.86899C5.47089 64.3595 5.9211 64.4916 6.21471 64.7509C6.50832 65.0103 6.66002 65.3822 6.66002 65.8569C6.66002 66.3316 6.51321 66.6839 6.21471 66.9481Z" fill="black"/>
<path d="M12.8744 70.0409V68.1813H17.396V66.0282H12.8744V64.3105H18.0077V62.084H10.0215V72.2674H18.1986V70.0409H12.8744Z" fill="black"/>
<path d="M27.3397 72.2674H30.3345L25.8227 62.084H22.9845L18.4873 72.2674H21.4234L22.2162 70.2904H26.5323L27.325 72.2674H27.3397ZM23.0823 68.1666L24.3889 64.9124L25.6955 68.1666H23.0823Z" fill="black"/>
<path d="M37.3812 72.2674H40.7283L36.3486 66.5909L40.5081 62.084H37.3371L33.393 66.3169V62.084H30.5449V72.2674H33.393V69.7179L34.4646 68.5728L37.3812 72.2674Z" fill="black"/>
<path d="M50.0854 72.2674H51.6122L46.9878 62.084H45.5491L40.9395 72.2674H42.4369L43.5575 69.7228H48.9697L50.0903 72.2674H50.0854ZM44.0615 68.5581L46.2587 63.5618L48.4559 68.5581H44.0664H44.0615Z" fill="black"/>
<path d="M54.0003 62.084H52.5469V72.2674H54.0003V62.084Z" fill="black"/>
<path d="M53.9995 31.1816H46.1797V54.5433H53.9995V31.1816Z" fill="black"/>
<path d="M38.3505 46.7236H15.6348V54.5435H38.3505V46.7236Z" fill="black"/>
<path d="M38.3505 31.1816H15.6348V39.0015H38.3505V31.1816Z" fill="black"/>
<path d="M0 15.6348V54.5432H7.81985V23.4546H54V0H0V7.81985H46.1802V15.6348" fill="black"/>
</g>
<defs>
<clipPath id="clip0_357_324">
<rect width="54" height="72.2675" fill="white"/>
</clipPath>
</defs>
</svg>
